<svg xmlns="http://www.w3.org/2000/svg" xmlns:xlink="http://www.w3.org/1999/xlink" width="238" height="46" viewBox="0 0 238 46"><defs><style>.a{clip-path:url(#b);}.b,.d{fill:#3f51b5;}.c,.d{fill-rule:evenodd;}</style><clipPath id="b"><rect width="238" height="46"/></clipPath></defs><g id="a" class="a"><path d="M.7,0,8.645-25.2h6.178L22.768,0h-4.34l-7.21-22.61h.945L5.04,0ZM5.128-5.46V-9.4h13.23V-5.46ZM25.218-.035V-3.71L36-13.318a7.3,7.3,0,0,0,1.75-2.117,4.359,4.359,0,0,0,.49-1.925,4.6,4.6,0,0,0-.543-2.249,4.107,4.107,0,0,0-1.5-1.566,4.156,4.156,0,0,0-2.2-.577,4.419,4.419,0,0,0-2.319.6,4.3,4.3,0,0,0-1.566,1.6,4.065,4.065,0,0,0-.525,2.153h-4.34a8.344,8.344,0,0,1,1.129-4.392A7.714,7.714,0,0,1,29.5-24.693a9.82,9.82,0,0,1,4.594-1.032,8.74,8.74,0,0,1,4.34,1.076,7.89,7.89,0,0,1,3.028,2.975,8.536,8.536,0,0,1,1.1,4.366,8.186,8.186,0,0,1-.49,3.028,7.17,7.17,0,0,1-1.461,2.257Q39.638-10.99,38.2-9.73L30.555-2.958l-.385-1.05H42.56V-.035ZM46.06,0V-.577L58.485-21.245H46.935V-25.2H65.783v.6L53.428-3.973H65.485V0ZM86.31.525a12.365,12.365,0,0,1-4.979-.963,9.3,9.3,0,0,1-3.64-2.756A8.921,8.921,0,0,1,75.88-7.455l4.375-.665a5.788,5.788,0,0,0,2.3,3.465A6.8,6.8,0,0,0,86.573-3.43a7.569,7.569,0,0,0,2.537-.42,4.709,4.709,0,0,0,1.934-1.225,2.806,2.806,0,0,0,.744-1.977,2.638,2.638,0,0,0-.175-.971,2.371,2.371,0,0,0-.516-.8,3.61,3.61,0,0,0-.875-.639,6.546,6.546,0,0,0-1.234-.5l-6.51-1.925a16.605,16.605,0,0,1-1.811-.656,7.265,7.265,0,0,1-1.838-1.137,5.567,5.567,0,0,1-1.417-1.855,6.33,6.33,0,0,1-.551-2.791,6.641,6.641,0,0,1,1.234-4.086,7.433,7.433,0,0,1,3.325-2.476,12.36,12.36,0,0,1,4.646-.805,11.881,11.881,0,0,1,4.62.884,8.855,8.855,0,0,1,3.4,2.511,9.653,9.653,0,0,1,1.925,3.972l-4.533.787A5.03,5.03,0,0,0,90.4-19.8a5.193,5.193,0,0,0-1.943-1.426,6.607,6.607,0,0,0-2.441-.525,6.484,6.484,0,0,0-2.336.376,4.208,4.208,0,0,0-1.733,1.129,2.494,2.494,0,0,0-.656,1.715,2.1,2.1,0,0,0,.56,1.514,3.987,3.987,0,0,0,1.391.927,13.68,13.68,0,0,0,1.689.569l4.515,1.26q.927.245,2.082.665a9.466,9.466,0,0,1,2.222,1.172,5.956,5.956,0,0,1,1.759,1.978A6.282,6.282,0,0,1,96.2-7.333a7.019,7.019,0,0,1-.814,3.439,7.279,7.279,0,0,1-2.2,2.459A10.015,10.015,0,0,1,90.029.035,13.922,13.922,0,0,1,86.31.525ZM113.067,0V-9.1a17.754,17.754,0,0,0-.122-1.977,7.093,7.093,0,0,0-.569-2.091,4.051,4.051,0,0,0-1.33-1.654,3.96,3.96,0,0,0-2.389-.648,5.007,5.007,0,0,0-1.592.263,3.628,3.628,0,0,0-1.426.9,4.528,4.528,0,0,0-1.024,1.75,8.831,8.831,0,0,0-.385,2.844l-2.5-1.068a10.021,10.021,0,0,1,.936-4.375,7.444,7.444,0,0,1,2.756-3.124,8.152,8.152,0,0,1,4.48-1.164,7.567,7.567,0,0,1,3.465.7,6.12,6.12,0,0,1,2.17,1.785,7.771,7.771,0,0,1,1.19,2.31,11.85,11.85,0,0,1,.5,2.319q.114,1.094.114,1.776V0ZM99.96,0V-25.2h3.762v13.265h.507V0ZM152.6.525a7.881,7.881,0,0,1-4.637-1.313,8.028,8.028,0,0,1-2.818-3.579A13.094,13.094,0,0,1,144.2-9.45a13.125,13.125,0,0,1,.945-5.11,8.1,8.1,0,0,1,2.774-3.561,7.593,7.593,0,0,1,4.524-1.3,8.22,8.22,0,0,1,4.646,1.3,8.69,8.69,0,0,1,3.054,3.552,11.635,11.635,0,0,1,1.085,5.119,11.769,11.769,0,0,1-1.068,5.093,8.688,8.688,0,0,1-3.01,3.57A7.932,7.932,0,0,1,152.6.525ZM143.482,8.4V-18.9h3.728V-5.635h.525V8.4Zm8.47-11.655a4.315,4.315,0,0,0,2.713-.823,4.84,4.84,0,0,0,1.584-2.231,9.075,9.075,0,0,0,.516-3.141,8.886,8.886,0,0,0-.525-3.124,4.85,4.85,0,0,0-1.628-2.24,4.522,4.522,0,0,0-2.8-.831,4.192,4.192,0,0,0-2.625.779,4.506,4.506,0,0,0-1.5,2.17,9.932,9.932,0,0,0-.481,3.246,9.951,9.951,0,0,0,.481,3.238,4.432,4.432,0,0,0,1.523,2.179A4.459,4.459,0,0,0,151.952-3.255ZM174.16.525a7.881,7.881,0,0,1-4.637-1.313,8.028,8.028,0,0,1-2.818-3.579,13.094,13.094,0,0,1-.945-5.084,13.125,13.125,0,0,1,.945-5.11,8.1,8.1,0,0,1,2.774-3.561,7.593,7.593,0,0,1,4.524-1.3,8.22,8.22,0,0,1,4.646,1.3,8.69,8.69,0,0,1,3.054,3.552,11.635,11.635,0,0,1,1.085,5.119,11.769,11.769,0,0,1-1.068,5.093,8.688,8.688,0,0,1-3.01,3.57A7.932,7.932,0,0,1,174.16.525ZM165.042,8.4V-18.9h3.728V-5.635h.525V8.4Zm8.47-11.655a4.315,4.315,0,0,0,2.713-.823,4.84,4.84,0,0,0,1.584-2.231,9.075,9.075,0,0,0,.516-3.141,8.886,8.886,0,0,0-.525-3.124,4.85,4.85,0,0,0-1.628-2.24,4.522,4.522,0,0,0-2.8-.831,4.192,4.192,0,0,0-2.625.779,4.506,4.506,0,0,0-1.5,2.17,9.932,9.932,0,0,0-.481,3.246,9.951,9.951,0,0,0,.481,3.238,4.432,4.432,0,0,0,1.523,2.179A4.459,4.459,0,0,0,173.512-3.255ZM186.988-21.77v-3.868h4.217v3.868Zm0,21.77V-18.9h4.217V0Zm22.54,0V-9.1a17.75,17.75,0,0,0-.123-1.977,7.092,7.092,0,0,0-.569-2.091,4.051,4.051,0,0,0-1.33-1.654,3.96,3.96,0,0,0-2.389-.648,5.007,5.007,0,0,0-1.592.263,3.628,3.628,0,0,0-1.426.9,4.528,4.528,0,0,0-1.024,1.75,8.831,8.831,0,0,0-.385,2.844l-2.5-1.068a10.021,10.021,0,0,1,.936-4.375,7.444,7.444,0,0,1,2.756-3.124,8.152,8.152,0,0,1,4.48-1.164,7.567,7.567,0,0,1,3.465.7A6.12,6.12,0,0,1,212-16.958a7.771,7.771,0,0,1,1.19,2.31,11.85,11.85,0,0,1,.5,2.319q.114,1.094.114,1.776V0ZM196.42,0V-18.9h3.763v5.863h.507V0Zm29.873,8.925a9.328,9.328,0,0,1-3.019-.49,8.555,8.555,0,0,1-2.6-1.409,7.585,7.585,0,0,1-1.89-2.214l3.885-1.925A3.47,3.47,0,0,0,224.2,4.419a4.618,4.618,0,0,0,2.109.5,5.666,5.666,0,0,0,2.345-.464,3.571,3.571,0,0,0,1.6-1.365A3.939,3.939,0,0,0,230.79.84V-4.533h.525V-18.9h3.693V.91q0,.717-.061,1.374a10.361,10.361,0,0,1-.2,1.286,6.04,6.04,0,0,1-1.61,3.019,7.374,7.374,0,0,1-2.949,1.759A12.429,12.429,0,0,1,226.293,8.925Zm-.368-8.4a7.932,7.932,0,0,1-4.55-1.313,8.688,8.688,0,0,1-3.01-3.57A11.769,11.769,0,0,1,217.3-9.45a11.715,11.715,0,0,1,1.076-5.119,8.605,8.605,0,0,1,3.054-3.552,8.262,8.262,0,0,1,4.655-1.3,7.593,7.593,0,0,1,4.524,1.3,8.1,8.1,0,0,1,2.774,3.561,13.125,13.125,0,0,1,.945,5.11,13.094,13.094,0,0,1-.945,5.084,8.028,8.028,0,0,1-2.818,3.579A7.881,7.881,0,0,1,225.925.525Zm.648-3.78a4.459,4.459,0,0,0,2.739-.779,4.432,4.432,0,0,0,1.522-2.179,9.951,9.951,0,0,0,.481-3.238,9.932,9.932,0,0,0-.481-3.246,4.506,4.506,0,0,0-1.5-2.17,4.192,4.192,0,0,0-2.625-.779,4.522,4.522,0,0,0-2.8.831,4.85,4.85,0,0,0-1.628,2.24,8.886,8.886,0,0,0-.525,3.124,9.075,9.075,0,0,0,.516,3.141,4.84,4.84,0,0,0,1.584,2.231A4.315,4.315,0,0,0,226.573-3.255Z" transform="translate(1 36)"/><path class="b" d="M.7,0,8.645-25.2h6.178L22.768,0h-4.34l-7.21-22.61h.945L5.04,0ZM5.128-5.46V-9.4h13.23V-5.46ZM46.06,0V-.577L58.485-21.245H46.935V-25.2H65.783v.6L53.428-3.973H65.485V0Z" transform="translate(1 36)"/><g transform="translate(121.685 17.08)"><path class="c" d="M6.876,5.918H18.3a.959.959,0,0,1,.959.959V18.3a.959.959,0,0,1-.959.959H6.876a.959.959,0,0,1-.959-.959V6.876a.959.959,0,0,1,.959-.959ZM3,5.876A2.876,2.876,0,0,1,5.876,3H19.3a2.876,2.876,0,0,1,2.876,2.876V19.3A2.876,2.876,0,0,1,19.3,22.176H5.876A2.876,2.876,0,0,1,3,19.3Z" transform="translate(-3 -3)"/><path class="d" d="M11.736,12.677c-3.69,0-5.166-3.188-5.166-6.021h2.6c0,2.194,1.428,3.419,2.565,3.419S14.3,8.85,14.3,6.656h2.6C16.9,9.489,15.362,12.677,11.736,12.677Z" transform="translate(-2.148 -1.455)"/></g></g></svg>